<?xml version="1.0" standalone="no"?>
<!DOCTYPE svg PUBLIC "-//W3C//DTD SVG 20010904//EN"
 "http://www.w3.org/TR/2001/REC-SVG-20010904/DTD/svg10.dtd">
<svg version="1.0" xmlns="http://www.w3.org/2000/svg"
 width="600.000000pt" height="480.000000pt" viewBox="0 0 600.000000 480.000000"
 preserveAspectRatio="xMidYMid meet">

<g transform="translate(0.000000,480.000000) scale(0.100000,-0.100000)"
fill="#000000" stroke="none">
<path d="M2680 3784 c-136 -36 -254 -147 -340 -319 -44 -86 -69 -123 -121
-174 -60 -59 -68 -72 -79 -125 -15 -71 -10 -114 25 -224 25 -78 26 -89 19
-220 -8 -155 1 -215 44 -295 56 -104 158 -162 399 -227 97 -26 178 -56 237
-86 105 -54 161 -66 236 -52 69 13 112 35 191 99 35 28 80 59 99 69 43 22 127
40 184 40 66 0 103 10 131 36 24 22 25 26 22 151 l-2 128 69 200 c63 182 70
207 70 280 0 92 -6 107 -93 225 -68 92 -101 155 -108 210 -3 22 -12 45 -21 52
-8 7 -49 15 -91 18 -84 6 -73 -4 -144 120 -26 44 -43 60 -90 84 l-58 30 -77
-24 c-152 -46 -167 -46 -282 -11 -114 35 -140 36 -220 15z m208 -59 c91 -32
159 -32 259 0 87 28 114 30 146 14 29 -15 67 -50 67 -62 0 -6 -8 -3 -18 6 -39
36 -68 38 -152 11 -130 -41 -162 -41 -285 -4 -97 30 -111 31 -160 22 -82 -17
-153 -58 -226 -131 -52 -52 -77 -89 -120 -176 -43 -88 -66 -122 -117 -171 -55
-53 -64 -67 -74 -117 -13 -59 -10 -72 37 -237 12 -44 14 -85 9 -200 -4 -114
-3 -155 9 -192 8 -27 11 -46 7 -43 -17 10 -40 102 -42 165 -1 36 0 115 1 175
3 98 1 118 -23 184 -30 85 -34 163 -11 218 9 21 40 58 69 84 40 37 65 72 107
154 140 275 308 373 517 300z m292 -151 c211 -62 388 -234 453 -439 32 -101
32 -299 0 -400 -66 -207 -241 -376 -458 -441 -83 -25 -267 -25 -350 0 -108 32
-213 94 -289 171 -81 80 -126 151 -164 257 -24 65 -27 87 -27 208 0 112 4 147
22 205 74 234 293 421 538 459 56 8 220 -3 275 -20z"/>
<path d="M2885 3536 c-137 -32 -234 -86 -327 -183 -107 -114 -157 -232 -165
-393 -9 -193 46 -340 177 -470 126 -126 260 -181 440 -182 86 0 120 5 187 27
390 124 555 588 331 933 -76 116 -210 216 -348 256 -77 23 -221 29 -295 12z
m659 -325 c120 -230 77 -511 -109 -696 -79 -80 -193 -144 -293 -164 -200 -41
-402 19 -547 163 -108 108 -177 259 -174 382 l2 49 7 -60 c24 -181 134 -341
294 -429 258 -144 587 -67 752 175 69 102 95 179 101 304 8 158 -37 289 -143
415 -45 54 -44 53 14 -8 33 -34 76 -93 96 -131z m-401 73 c37 -7 37 -7 37 -55
0 -27 -3 -49 -6 -49 -4 0 -24 15 -45 34 -66 60 -180 58 -233 -5 -20 -24 -26
-41 -26 -81 0 -66 25 -89 159 -147 110 -47 143 -76 162 -140 15 -51 5 -99 -30
-149 -43 -59 -98 -77 -209 -69 -128 9 -130 10 -134 68 -3 55 5 61 35 23 11
-15 39 -35 61 -45 113 -51 227 9 213 114 -7 53 -37 82 -121 113 -92 34 -147
69 -175 109 -63 93 -24 217 84 266 41 19 152 25 228 13z"/>
<path d="M3677 3644 c-14 -14 -7 -53 12 -63 26 -14 54 8 49 40 -2 17 -10 25
-28 27 -14 2 -29 0 -33 -4z"/>
<path d="M2039 1965 c-53 -28 -44 -101 16 -133 70 -38 105 -63 105 -76 0 -27
-31 -46 -75 -46 -40 0 -44 2 -50 30 -9 43 -35 39 -35 -5 0 -46 25 -58 103 -53
69 5 97 29 97 82 0 39 -24 63 -98 100 -43 22 -53 31 -50 49 4 26 45 48 75 41
12 -4 26 -19 32 -36 12 -34 31 -29 31 8 0 42 25 26 74 -46 39 -60 46 -77 46
-120 0 -44 -2 -50 -21 -50 -12 0 -19 -5 -17 -12 6 -16 76 -22 108 -9 l25 10
-22 7 c-20 6 -23 13 -23 63 0 48 6 65 40 119 32 49 46 62 65 62 15 0 25 -6 25
-15 1 -8 1 -58 1 -110 0 -52 0 -99 -1 -105 0 -5 -7 -10 -15 -10 -8 0 -15 -7
-15 -15 0 -11 12 -15 50 -15 36 0 50 4 50 14 0 7 -9 16 -20 19 -18 5 -20 14
-20 91 0 47 2 86 4 86 2 0 42 -44 87 -97 89 -105 99 -114 111 -107 4 3 8 63 8
133 0 114 2 129 18 133 49 12 52 4 52 -122 0 -111 -1 -118 -21 -123 -12 -3
-18 -10 -14 -16 8 -14 342 -14 351 0 3 6 -3 13 -15 16 -18 4 -21 13 -21 54 0
42 3 49 19 49 14 0 30 -19 53 -62 l33 -63 93 -3 c74 -2 92 0 92 11 0 8 -9 17
-21 20 -17 5 -20 12 -17 54 l3 48 63 3 62 3 0 -54 c0 -47 -3 -55 -21 -60 -40
-11 -8 -27 52 -27 46 0 59 3 59 15 0 8 -9 15 -20 15 -19 0 -20 7 -20 120 l0
120 34 0 34 0 4 -106 c3 -105 3 -106 36 -135 51 -45 131 -39 174 15 14 17 18
42 18 124 l0 102 35 0 35 0 0 -119 c0 -112 -1 -119 -21 -124 -13 -4 -18 -10
-14 -18 6 -8 33 -9 99 -4 72 5 96 11 114 28 31 29 30 79 -4 110 -22 21 -23 25
-10 37 9 7 16 28 16 46 0 56 -30 68 -182 72 -113 4 -128 2 -128 -12 0 -9 7
-16 15 -16 12 0 15 -18 15 -100 0 -87 -3 -103 -20 -120 -28 -28 -75 -26 -105
5 -23 22 -25 32 -25 118 0 86 2 95 20 100 11 3 20 10 20 16 0 15 -236 15 -245
0 -4 -6 2 -13 14 -16 18 -4 21 -13 21 -54 l0 -49 -65 0 -65 0 0 50 c0 43 3 50
20 50 11 0 20 7 20 15 0 12 -13 15 -59 15 -60 0 -92 -16 -52 -27 20 -5 21 -12
21 -124 l0 -119 -27 0 c-23 0 -33 9 -55 52 l-28 51 25 23 c17 16 25 34 25 56
0 39 -7 51 -39 68 -34 17 -176 26 -186 11 -4 -8 1 -14 14 -18 20 -5 21 -12 21
-123 0 -109 -1 -118 -20 -123 -17 -4 -20 0 -20 29 0 42 -17 44 -31 4 -10 -28
-15 -30 -60 -30 l-49 0 0 55 0 55 45 0 c33 0 45 4 45 15 0 11 -12 15 -45 15
l-45 0 0 50 0 50 44 0 c40 0 45 -3 55 -30 15 -45 33 -37 29 13 l-3 42 -157 3
c-136 2 -158 0 -158 -13 0 -8 9 -15 20 -15 18 0 20 -7 20 -85 0 -47 -3 -85 -7
-84 -5 0 -45 45 -91 100 l-83 99 -69 0 c-69 0 -94 -11 -64 -28 14 -8 13 -14
-13 -56 l-30 -47 -31 48 c-17 26 -27 50 -22 51 6 2 10 10 10 17 0 20 -224 19
-261 0z m1109 -31 c44 -31 18 -94 -39 -94 -29 0 -29 1 -29 55 0 51 2 55 23 55
12 0 33 -7 45 -16z m843 6 c40 -22 13 -90 -37 -90 -22 0 -24 4 -24 50 0 44 3
50 21 50 11 0 29 -5 40 -10z m23 -136 c9 -8 16 -26 16 -39 0 -33 -26 -55 -66
-55 l-34 0 0 55 0 55 34 0 c19 0 42 -7 50 -16z"/>
</g>
</svg>
